<svg xmlns="http://www.w3.org/2000/svg" viewBox="0 0 45.09 36.06"><defs><style>.a{fill:#765482;}</style></defs><path class="a" d="M36.06,2a7,7,0,0,1,7,7A12.74,12.74,0,0,1,40,16.34l-.59.64.06.87V18c0,.38.06.73.06,1.06,0,8.83-7,15-17,15s-17-6.17-17-15c0-.36,0-.75,0-1.23L5.66,17l-.59-.64A12.6,12.6,0,0,1,2,9,7,7,0,0,1,9,2a10.06,10.06,0,0,1,4.64,1.5l.89.52.94-.43a16.91,16.91,0,0,1,14.08,0l.94.43.89-.52A10,10,0,0,1,36.06,2m0-2A12,12,0,0,0,30.4,1.78a18.89,18.89,0,0,0-15.73,0A12,12,0,0,0,9,0,9,9,0,0,0,0,9a14.6,14.6,0,0,0,3.6,8.66c0,.45-.05.91-.05,1.37,0,10.5,8.5,17,19,17s19-6.5,19-17c0-.46,0-.91-.07-1.36A14.62,14.62,0,0,0,45.09,9a9,9,0,0,0-9-9Z"/></svg>